<?xml version="1.0" encoding="UTF-8" standalone="no"?><!DOCTYPE svg PUBLIC "-//W3C//DTD SVG 1.1//EN" "http://www.w3.org/Graphics/SVG/1.1/DTD/svg11.dtd"><svg width="100%" height="100%" viewBox="0 0 3889 3889" version="1.1" xmlns="http://www.w3.org/2000/svg" xmlns:xlink="http://www.w3.org/1999/xlink" xml:space="preserve" xmlns:serif="http://www.serif.com/" style="fill-rule:evenodd;clip-rule:evenodd;stroke-linejoin:round;stroke-miterlimit:2;"><g><path d="M1075,3.333c-103.333,21.667 -182.222,76.111 -230.556,159.445c-13.333,21.666 -28.333,46.666 -33.888,55c-6.112,8.333 -10.556,16.111 -10.556,17.222c0,1.667 -21.667,39.444 -47.778,85c-26.111,45.556 -88.889,153.889 -139.444,241.111c-50,87.222 -93.889,162.222 -96.667,166.667c-2.778,4.444 -30.555,53.333 -62.222,108.333c-62.778,108.889 -218.333,378.333 -226.667,391.667c-2.778,4.444 -22.778,39.444 -44.444,77.778c-22.222,38.333 -47.222,81.666 -56.111,97.222c-40.556,70 -55.556,125.555 -53.889,193.889c1.666,60.555 18.333,112.777 58.889,182.777c38.333,65 156.111,269.445 172.222,298.334c6.111,10.555 61.667,106.666 123.889,213.889c61.666,106.666 117.778,203.333 123.333,213.889c6.111,10.555 20.556,35.555 32.222,55.555c11.667,20 26.111,45 32.223,55.556c6.111,10.555 32.777,56.666 59.444,102.777c26.667,45.556 52.778,90.556 57.778,100c5,8.889 27.222,47.778 49.444,86.112c22.222,38.333 43.334,74.444 47.222,80.555c42.778,74.445 86.112,119.445 143.889,148.889c80.556,41.111 24.445,38.333 879.445,38.333c847.222,0 796.666,2.223 872.222,-35l34.444,-17.222l168.889,120.556c92.778,66.666 200,143.889 238.334,171.111c38.333,27.778 82.222,58.889 97.222,69.444c26.667,18.889 72.222,51.667 83.333,61.111c3.334,2.223 11.667,8.889 19.445,14.445c9.444,6.666 10.555,8.889 3.333,6.666c-17.222,-6.111 -116.111,-30.555 -136.667,-33.888c-10.555,-1.667 -23.333,-4.445 -27.777,-5.556c-15.556,-4.444 -102.223,-14.444 -158.334,-18.333c-112.778,-7.223 -753.333,-2.778 -977.778,7.222c-24.444,1.111 -89.444,3.333 -144.444,5.555c-55,2.223 -116.111,4.445 -136.111,5.556c-20,1.111 -67.222,3.333 -105.556,5.556c-106.111,5 -153.333,7.777 -211.111,11.111c-50,2.777 -69.444,4.444 -175,11.111c-24.444,1.666 -63.333,4.444 -86.111,6.111c-110,7.222 -181.111,12.222 -225,16.111c-15,1.111 -45,3.889 -66.667,5.556c-21.111,1.666 -48.888,4.444 -61.111,5.555c-12.222,1.667 -34.444,3.889 -50,5.556c-15,1.666 -36.666,3.889 -47.222,5.555c-10.555,1.667 -30.555,3.889 -44.444,5.556c-13.889,2.222 -35.556,6.111 -48.889,8.889c-12.778,2.777 -32.778,6.666 -44.445,8.333c-41.111,6.111 -170.555,42.222 -211.666,58.889c-23.334,9.444 -50.556,23.333 -60.556,30.555l-18.333,13.889l21.111,15.556c26.111,19.444 76.667,36.667 121.111,41.667c18.333,2.222 39.444,5 47.222,6.111c15,2.777 161.667,6.111 477.778,10.555c256.667,3.889 342.778,6.667 752.778,22.222c36.666,1.667 100.555,3.889 141.666,5.556c41.112,1.667 98.889,3.889 127.778,5.556c28.889,1.666 78.889,3.888 111.111,5.555c128.889,6.667 226.111,15.556 319.445,27.778c9.444,1.111 31.111,3.889 48.889,5.555c17.777,2.223 61.666,6.667 97.222,10.556c57.778,6.667 273.889,7.222 334.444,1.111c10.556,-0.555 43.334,-3.333 72.223,-6.111c28.888,-2.222 56.666,-5 62.222,-5.556c5,-1.111 26.666,-3.888 47.222,-5.555c20.556,-2.222 41.667,-4.445 46.111,-5.556c4.445,-1.111 19.445,-3.889 33.333,-5.555c46.667,-6.111 95.556,-13.889 113.889,-17.222c6.111,-1.112 18.889,-3.889 27.778,-5.556c78.333,-13.889 208.889,-45.556 265,-63.889c113.333,-37.222 170.556,-75 199.445,-131.667c11.111,-22.222 13.333,-33.888 13.333,-78.888c-0,-46.112 -3.889,-98.889 -11.111,-167.223c-1.667,-11.111 -3.889,-36.111 -5.556,-55.555c-1.666,-19.445 -3.889,-46.667 -5.555,-60.556c-1.111,-13.889 -3.889,-40.555 -5,-60c-6.667,-76.111 -9.445,-104.444 -11.667,-117.778c-1.111,-7.777 -3.333,-33.888 -5.556,-58.333c-2.777,-41.111 -4.444,-56.667 -11.111,-125c-3.889,-37.778 -8.333,-87.778 -11.666,-125c-1.667,-18.333 -3.889,-44.444 -5.556,-58.333c-1.111,-13.889 -3.333,-39.445 -5,-56.667c-1.111,-17.222 -3.333,-45.555 -5,-62.222c-1.667,-17.222 -4.444,-45 -6.111,-61.667c-1.667,-16.666 -3.889,-43.889 -5.556,-60c-1.666,-15.555 -3.888,-43.889 -5.555,-62.222c-1.667,-18.333 -3.889,-46.667 -5.556,-62.778c-1.666,-15.555 -3.889,-42.222 -5.555,-58.333c-1.111,-15.556 -3.889,-41.667 -5,-56.667c-1.667,-15.555 -4.445,-45.555 -6.111,-66.666c-1.667,-21.667 -4.445,-47.778 -5.556,-58.334c-1.111,-10.555 -3.889,-37.222 -5.555,-58.333c-1.667,-21.667 -4.445,-50 -5.556,-63.889c-1.667,-13.889 -3.889,-41.111 -5.556,-61.111c-1.666,-20 -3.888,-47.222 -5.555,-61.111c-2.778,-26.667 -6.111,-58.334 -11.111,-116.667c-1.667,-20 -4.445,-47.222 -5.556,-61.111c-1.666,-13.889 -3.889,-41.111 -5.555,-61.111c-2.778,-38.333 -7.223,-78.333 -11.667,-112.222c-3.889,-29.445 -25.556,-80 -61.111,-141.667c-17.778,-30 -36.667,-63.333 -42.778,-73.889c-5.555,-10.555 -33.889,-59.444 -62.222,-108.333c-28.333,-48.889 -56.667,-98.334 -63.333,-110.556c-6.667,-11.666 -43.334,-75 -81.667,-141.666c-37.778,-66.112 -72.222,-125 -75.556,-131.112c-3.333,-6.111 -41.111,-70.555 -83.889,-143.888c-42.222,-72.778 -82.222,-141.667 -88.333,-152.778c-18.333,-33.334 -160,-278.334 -186.111,-321.667c-12.778,-22.222 -23.889,-41.667 -23.889,-43.333c0,-5.556 -35,-48.889 -55.555,-67.778c-43.334,-41.111 -96.667,-69.444 -152.778,-81.667c-26.667,-6.111 -189.445,-7.222 -800,-7.222c-421.667,0 -771.667,1.111 -777.778,2.222Zm1481.11,334.445c48.333,23.889 47.222,21.666 171.667,237.222c28.333,48.889 57.778,100 65.555,113.889c7.778,13.889 18.334,32.222 23.889,41.667c5.556,8.888 17.778,30.555 27.222,47.222c9.445,16.666 22.223,39.444 28.334,50c6.666,10.555 74.444,127.222 150.555,259.444l138.334,240l-18.334,20.556c-10,11.111 -23.333,26.111 -29.444,32.222c-32.222,33.333 -117.222,151.667 -155.556,216.667c-5.555,9.444 -31.111,14.444 -113.889,22.777c-20,2.223 -43.333,4.445 -52.777,5.556c-62.778,6.667 -85,9.444 -97.223,11.111c-7.777,1.111 -31.111,3.889 -52.777,6.111c-21.111,2.222 -45,4.445 -52.778,5c-7.778,1.111 -18.889,1.667 -25,2.222c-8.333,0.556 -26.111,20.556 -58.333,65c-26.112,35.556 -50,67.778 -52.778,71.112c-3.334,3.333 -12.222,15 -19.445,25.555c-7.222,10.556 -37.777,52.222 -67.222,92.222l-53.889,72.778l-38.333,1.111c-80.556,1.667 -167.222,11.667 -253.889,28.889c-52.222,10.556 -55,10.556 -62.222,1.111c-3.889,-5.555 -7.778,-11.666 -7.778,-13.889c-0,-1.666 -11.667,-23.333 -25.556,-47.222c-14.444,-23.889 -31.666,-53.333 -38.888,-66.111c-7.223,-12.778 -58.334,-101.111 -113.889,-197.222c-55.556,-96.111 -106.667,-184.445 -113.334,-196.667c-7.222,-12.222 -58.333,-101.111 -113.889,-197.222c-56.111,-96.111 -107.777,-186.111 -115.555,-199.445c-26.111,-46.666 -45.556,-81.111 -51.111,-89.444c-4.445,-7.222 -88.889,-154.444 -102.778,-178.889c-2.778,-5.555 -44.444,-76.667 -91.667,-158.333c-47.222,-81.667 -92.777,-160 -100.555,-175c-7.778,-14.445 -17.222,-30 -21.111,-34.445c-13.334,-16.111 36.111,-87.777 73.889,-107.222c42.222,-22.222 40.555,-22.222 727.777,-21.667l667.223,0.556l25.555,12.778Zm-1642.22,506.666c23.889,41.112 47.778,83.889 53.889,94.445c6.111,10.555 51.666,89.444 101.111,175c132.778,228.889 239.444,413.889 251.667,436.111c6.111,10.556 42.222,73.333 80.555,138.889c38.333,65.555 76.111,131.111 83.889,145.555c8.333,14.445 45.556,79.445 83.333,144.445c37.778,65 108.334,187.222 156.667,271.111c48.333,83.889 97.778,168.333 110,187.778c23.333,36.666 31.111,42.778 270.556,213.889c41.111,29.444 119.444,85.555 173.888,124.444l99.445,71.111l-595,1.667c-584.445,1.111 -595,1.111 -623.889,-10c-32.778,-12.778 -62.778,-37.778 -80,-66.667c-63.889,-107.778 -91.111,-155 -91.111,-157.778c-0,-1.666 -8.333,-16.111 -18.333,-32.222c-10.556,-16.111 -26.112,-43.333 -35.556,-60c-9.444,-16.666 -30,-53.333 -46.111,-80.555c-16.111,-27.778 -33.889,-58.889 -40,-69.445c-25,-43.333 -178.889,-310.555 -196.111,-338.889c-10,-16.666 -57.222,-99.444 -105.556,-183.333c-48.333,-83.889 -94.444,-163.889 -102.778,-177.778c-26.666,-45 -32.222,-98.333 -14.444,-140.555c7.222,-17.778 122.778,-221.111 196.111,-345.556c3.889,-6.111 21.111,-36.111 38.889,-66.667c17.778,-30.555 35.556,-62.222 40.556,-70c4.444,-7.777 26.111,-45 47.222,-82.222c21.666,-37.222 41.666,-72.222 44.444,-77.222c3.334,-5 20.556,-35 38.334,-66.667c17.777,-31.111 33.333,-56.111 33.888,-55.555c0.556,1.111 20.556,35.555 44.445,76.666Zm2391.11,825.556c0.556,17.778 2.222,33.889 3.333,35.556c1.111,1.666 3.889,26.666 5.556,55.555c1.667,28.889 4.444,53.889 5.555,55.556c1.112,1.666 3.334,25 5.556,52.777c2.222,27.223 4.444,56.112 5.556,63.889c2.222,14.445 4.444,37.223 13.888,133.334c9.445,96.111 11.667,118.889 13.889,133.333c1.111,7.778 3.334,36.111 5.556,63.889c1.667,27.222 4.444,53.889 5.555,58.333c1.112,4.445 3.889,28.334 5.556,52.222c2.222,23.889 4.444,47.778 5.556,52.778c0.555,5 3.333,30 5.555,56.111c2.222,26.111 4.445,54.445 5.556,63.889c1.111,8.889 3.889,35.556 6.111,58.334c1.666,22.777 3.889,45.555 5,50c1.111,4.444 3.333,29.444 5.555,55.555c2.223,26.111 5,48.889 6.111,51.111c1.112,1.667 1.112,6.667 -0.555,11.111c-2.222,5.556 -11.111,7.223 -29.445,6.667c-39.444,-2.222 -99.444,12.222 -143.888,33.889c-43.889,21.667 -105,77.222 -123.889,112.778c-20.556,39.444 -15.556,40 -86.111,-10.556c-35.556,-25.555 -70,-50.555 -76.667,-55c-6.667,-4.444 -46.111,-32.778 -87.222,-62.222c-41.111,-29.445 -96.667,-69.445 -123.889,-88.889c-105.556,-76.111 -117.778,-85 -119.445,-88.889c-1.111,-2.778 -3.889,-4.444 -6.666,-4.444c-3.889,-0 -104.445,-70 -166.667,-116.667c-7.778,-5.556 -58.889,-42.222 -113.889,-81.667c-161.111,-115.555 -175,-125.555 -173.333,-127.222c3.889,-3.889 126.111,-23.333 173.333,-27.222c21.667,-2.222 61.111,-4.445 88.333,-5c44.445,-1.667 50.556,-3.333 59.445,-15c5.555,-7.222 36.111,-48.333 67.222,-91.111c31.111,-42.778 58.889,-80.556 61.111,-83.334c2.778,-3.333 27.222,-35.555 53.889,-72.777c27.222,-36.667 52.778,-67.223 56.667,-67.223c13.333,0 92.778,-7.777 103.333,-9.444c5.556,-1.111 27.778,-3.889 48.889,-6.111c21.667,-1.667 46.667,-4.445 55.556,-5.556c9.444,-1.666 27.777,-3.889 41.666,-5c13.889,-1.111 51.667,-5.555 83.889,-9.444l58.889,-6.667l21.111,-35.555c36.111,-61.111 156.111,-218.889 164.445,-215c1.666,1.111 3.888,16.111 4.444,33.333Z" style="fill:url(#_Linear1);fill-rule:nonzero;"/><path d="M730,1486.67c-23.889,7.777 -51.667,37.222 -53.333,55c-2.778,36.666 2.777,51.111 43.333,121.111c43.333,74.444 48.889,84.444 85,147.222c11.111,19.444 22.778,39.444 25.556,44.444c7.222,11.667 37.222,64.445 51.666,90c6.111,10.556 46.111,80.556 89.445,154.445c42.777,74.444 78.333,137.778 78.333,140.555c-0,2.778 2.778,5 5.556,5c3.333,0 5.555,2.223 5.555,5.556c0,2.778 15,30.556 33.333,61.667c18.334,30.555 33.334,56.666 33.334,57.777c-0,1.112 15,27.223 33.333,57.778c18.333,31.111 33.333,57.778 33.333,59.445c0,1.111 4.445,9.444 10,17.777c6.112,8.334 22.223,35 37.223,60c27.777,47.223 42.777,60 75.555,65.556c27.222,3.889 64.445,-15.556 78.334,-41.111c20.555,-37.778 6.111,-77.778 -78.889,-216.667c-15.556,-26.111 -448.334,-775 -467.778,-811.111c-23.889,-43.333 -36.667,-60 -50.556,-67.778c-22.222,-11.666 -46.666,-14.444 -68.333,-6.666Z" style="fill:url(#_Linear2);fill-rule:nonzero;"/></g><defs><linearGradient id="_Linear1" x1="0" y1="0" x2="1" y2="0" gradientUnits="userSpaceOnUse" gradientTransform="matrix(3741.24,0,0,-3884.26,72.6539,1943.24)"><stop offset="0" style="stop-color:#c00dff;stop-opacity:1"/><stop offset="0.5" style="stop-color:#c00dff;stop-opacity:1"/><stop offset="0.75" style="stop-color:#f807a9;stop-opacity:1"/><stop offset="1" style="stop-color:#f806a9;stop-opacity:1"/></linearGradient><linearGradient id="_Linear2" x1="0" y1="0" x2="1" y2="0" gradientUnits="userSpaceOnUse" gradientTransform="matrix(3741.24,0,0,-3884.26,72.6539,1943.24)"><stop offset="0" style="stop-color:#c00dff;stop-opacity:1"/><stop offset="0.5" style="stop-color:#c00dff;stop-opacity:1"/><stop offset="0.75" style="stop-color:#f807a9;stop-opacity:1"/><stop offset="1" style="stop-color:#f806a9;stop-opacity:1"/></linearGradient></defs></svg>